:version 1.10
:name ASF
:units
  mass 1
  length 1
  angle deg
:documentation
  ASF file generated by Kaydara
:root
  axis xyz
  order  tx ty tz rx ry rz
  position 0 0 0
  orientation 0 0 0
:bonedata
  begin
    id 1
    name RightUpLegDummy
    direction -0.718183 -0.695806 0.00816078
    length 4.904
    axis 0 0 0 xyz
  end
  begin
    id 2
    name RightUpLeg
    direction -0.0736652 -0.994202 0.0783343
    length 17.4976
    axis -2.72909 -3.00389 -4.00133 xyz
    dof rx ry rz
  end
  begin
    id 3
    name RightLeg
    direction -0.0389037 -0.994596 -0.0962598
    length 16.5821
    axis 3.95836 -18.5909 -4.46993 xyz
    dof rx ry rz
  end
  begin
    id 4
    name RightFoot
    direction -0.311643 -0.412678 0.855906
    length 3.77069
    axis -1.99483 -18.8351 -3.27644 xyz
    dof rx ry rz
  end
  begin
    id 5
    name RightToes
    direction -0.317852 0.0389852 0.947339
    length 3.85082
    axis -2.00228 -18.1713 -3.25211 xyz
    dof rx ry rz
  end
  begin
    id 6
    name SpineDummy
    direction 8.3039e-015 1 4.44677e-016
    length 4.6813
    axis 0 0 0 xyz
  end
  begin
    id 7
    name Spine
    direction -0.000262373 0.999988 0.00493267
    length 10.1015
    axis -0.00246081 0.00062579 0.0150362 xyz
    dof rx ry rz
  end
  begin
    id 8
    name Spine1
    direction 0 0 0
    length 0
    axis -0.00349562 0.000650293 0.0196666 xyz
    dof rx ry rz
  end
  begin
    id 9
    name HEadDummy
    direction -0.000343232 0.999999 0.00123745
    length 3.43865
    axis -0.00349562 0.000650293 0.0196666 xyz
  end
  begin
    id 10
    name HEad
    direction -0.0461221 0.980933 0.188796
    length 5.12695
    axis -0.00351404 -7.04812 0.0199272 xyz
    dof rx ry rz
  end
  begin
    id 11
    name LeftShoulder1Dummy
    direction 0.998904 -0.0399089 -0.0244534
    length 3.5433
    axis -0.00349562 0.000650293 0.0196666 xyz
  end
  begin
    id 12
    name LeftShoulder1
    direction 0.99951 1.64443e-005 0.0312999
    length 4.05031
    axis -0.00349562 0.000650293 0.0196666 xyz
    dof rx ry rz
  end
  begin
    id 13
    name LeftArm
    direction 0.984791 0.0515299 0.165927
    length 12.9126
    axis -64.823 -10.7743 5.20463 xyz
    dof rx ry rz
  end
  begin
    id 14
    name LeftForeArm
    direction 0.984968 0.0534808 0.16425
    length 10.8596
    axis -30.0462 -7.70601 1.87451 xyz
    dof rx ry rz
  end
  begin
    id 15
    name LeftHand
    direction 0.975871 0.0289682 0.216418
    length 6.62295
    axis -20.1348 -6.98077 1.86072 xyz
    dof rx ry rz
  end
  begin
    id 16
    name RightShoulderDummy
    direction -0.998877 -0.0405946 -0.0244307
    length 3.5433
    axis -0.00349562 0.000650293 0.0196666 xyz
  end
  begin
    id 17
    name RightShoulder
    direction -0.998933 -0.0249743 -0.0388558
    length 4.05031
    axis -0.0205316 -4.02113 1.41395 xyz
    dof rx ry rz
  end
  begin
    id 18
    name RightArm
    direction -0.997559 0.068664 0.0127103
    length 12.9638
    axis -67.3882 1.84188 -6.15987 xyz
    dof rx ry rz
  end
  begin
    id 19
    name RightForeArm
    direction -0.991508 0.0912848 0.0926241
    length 10.8312
    axis -22.1975 3.41087 -4.28711 xyz
    dof rx ry rz
  end
  begin
    id 20
    name RightHand
    direction -0.989262 0.0600788 0.133232
    length 6.57864
    axis -12.2911 2.17515 -4.39675 xyz
    dof rx ry rz
  end
  begin
    id 21
    name LeftUpLegDummy
    direction 0.718183 -0.695806 0.00816078
    length 4.904
    axis 0 0 0 xyz
  end
  begin
    id 22
    name LeftUpLeg
    direction 0.0831398 -0.99469 0.0606531
    length 17.4976
    axis -1.71016 2.29552 4.63832 xyz
    dof rx ry rz
  end
  begin
    id 23
    name LeftLeg
    direction 0.0498442 -0.991778 -0.117862
    length 16.5821
    axis 5.13757 15.5727 5.13348 xyz
    dof rx ry rz
  end
  begin
    id 24
    name LeftFoot
    direction 0.269026 -0.433896 0.85986
    length 3.77069
    axis -0.576502 15.6961 4.10267 xyz
    dof rx ry rz
  end
  begin
    id 25
    name LeftToes
    direction 0.277311 0.0251143 0.960452
    length 3.85048
    axis -0.576502 15.6961 4.10267 xyz
    dof rx ry rz
  end
:hierarchy
  begin
    root RightUpLegDummy SpineDummy LeftUpLegDummy
    RightUpLegDummy RightUpLeg
    RightUpLeg RightLeg
    RightLeg RightFoot
    RightFoot RightToes
    SpineDummy Spine
    Spine Spine1
    Spine1 HEadDummy LeftShoulder1Dummy RightShoulderDummy
    HEadDummy HEad
    LeftShoulder1Dummy LeftShoulder1
    LeftShoulder1 LeftArm
    LeftArm LeftForeArm
    LeftForeArm LeftHand
    RightShoulderDummy RightShoulder
    RightShoulder RightArm
    RightArm RightForeArm
    RightForeArm RightHand
    LeftUpLegDummy LeftUpLeg
    LeftUpLeg LeftLeg
    LeftLeg LeftFoot
    LeftFoot LeftToes
  end

:SAMPLES-PER-SECOND 30
:FULLY-SPECIFIED
:DEGREES
77
root  11.2953 38.5554 -61.9218 -1.65903 8.93612 -0.919624
RightUpLeg  5.01819 -0.633576 6.5523
RightLeg  15.5101 -1.03489 -3.69564
RightFoot  -19.1495 0.118774 1.09692
RightToes  5.82077e-011 -3.18055e-015 -2.98177e-016
Spine  4.94464 2.45674 13.9048
Spine1  1.67756 4.50034 -9.22191
HEad  -6.01365 -9.37812 3.76618
LeftShoulder1  -3.88251e-019 9.70628e-020 -3.87848e-018
LeftArm  -27.9551 66.3716 -65.9595
LeftForeArm  -6.95241 -2.34627 -1.63692
LeftHand  -0.239569 1.77432 8.57498
RightShoulder  7.86065 10.7654 36.6706
RightArm  15.9822 -33.1287 24.6413
RightForeArm  6.01947 18.751 -7.3689
RightHand  -1.20667 4.37974 -14.2136
LeftUpLeg  -23.7324 4.719 -2.29571
LeftLeg  11.8071 1.21915 4.09929
LeftFoot  2.93382 0.413281 -2.88043
LeftToes  7.79675e-011 9.80247e-012 -3.28897e-011
78
root  11.6694 38.5471 -60.4899 -1.40559 7.24934 0.0277184
RightUpLeg  8.01724 -0.987767 4.85509
RightLeg  13.6852 0.965659 -3.04478
RightFoot  -20.0638 0.203705 2.33466
RightToes  5.82077e-011 -3.18055e-015 -2.98177e-016
Spine  4.81543 2.75654 13.6377
Spine1  1.55731 5.11634 -11.412
HEad  -5.28861 -8.7955 3.40272
LeftShoulder1  -3.88251e-019 9.70628e-020 -3.87848e-018
LeftArm  -25.4195 68.5652 -63.1053
LeftForeArm  -3.06405 -1.6084 -1.69409
LeftHand  -0.186651 1.82888 6.7132
RightShoulder  7.74328 10.7105 36.2109
RightArm  17.4747 -31.987 26.5881
RightForeArm  3.52333 19.5745 -8.53797
RightHand  -1.22428 4.84203 -13.7898
LeftUpLeg  -20.4486 -3.82251 0.110858
LeftLeg  0.0702501 6.09975 0.977674
LeftFoot  0.474678 0.40404 -3.37675
LeftToes  7.79675e-011 9.80247e-012 -3.28897e-011
79
root  12.1021 38.4923 -59.0423 -1.6734 5.82401 1.08825
RightUpLeg  11.0254 -1.9256 2.63117
RightLeg  13.0384 3.27995 -2.88524
RightFoot  -20.6002 0.268147 3.13838
RightToes  5.82077e-011 -3.18055e-015 -2.98177e-016
Spine  5.08439 2.82294 12.7931
Spine1  2.00968 5.57261 -12.7523
HEad  -5.25555 -8.02022 3.17324
LeftShoulder1  -3.88251e-019 9.70628e-020 -3.87848e-018
LeftArm  -24.1533 70.2909 -61.2542
LeftForeArm  -1.7654 -1.26778 -1.51539
LeftHand  -0.116471 2.00527 4.2761
RightShoulder  7.72926 10.7004 36.1634
RightArm  20.4044 -31.0359 27.6647
RightForeArm  -0.913314 21.1318 -10.5526
RightHand  -1.26647 5.29528 -13.6698
LeftUpLeg  -19.0813 -5.65767 -1.17218
LeftLeg  -2.84399 4.9098 1.67997
LeftFoot  0.653454 0.427849 -3.58287
LeftToes  7.79675e-011 9.80247e-012 -3.28897e-011
80
root  12.5963 38.452 -57.5524 -1.92435 5.06903 2.48996
RightUpLeg  13.1325 -3.17711 -0.207144
RightLeg  14.2324 5.62974 -3.33041
RightFoot  -20.3095 0.356319 4.65052
RightToes  5.82077e-011 -3.18055e-015 -2.98177e-016
Spine  5.04844 2.80216 11.0802
Spine1  2.97119 5.79743 -13.0262
HEad  -5.80178 -7.35809 3.05619
LeftShoulder1  -3.88251e-019 9.70628e-020 -3.87848e-018
LeftArm  -24.6637 70.9767 -61.0438
LeftForeArm  -2.03528 -0.703704 -1.18576
LeftHand  -0.0641079 2.61858 2.75512
RightShoulder  7.8872 10.7621 36.8084
RightArm  22.2347 -30.4464 27.1794
RightForeArm  -4.50431 23.8437 -12.7415
RightHand  -1.28437 5.07137 -14.1518
LeftUpLeg  -18.9177 -5.96545 -2.92911
LeftLeg  0.699385 4.09631 2.04489
LeftFoot  6.12588 0.211732 -1.22429
LeftToes  7.79675e-011 9.80247e-012 -3.28897e-011
81
root  13.1636 38.3583 -55.9566 -2.03737 4.96676 3.96269
RightUpLeg  13.1577 -3.58201 -2.9659
RightLeg  19.3688 7.03447 -4.48798
RightFoot  -19.6242 0.568787 9.16383
RightToes  5.82077e-011 -3.18055e-015 -2.98177e-016
Spine  4.58946 2.80217 9.40135
Spine1  3.5375 5.76925 -12.6496
HEad  -6.15017 -7.21678 3.03936
LeftShoulder1  -3.88251e-019 9.70628e-020 -3.87848e-018
LeftArm  -26.1638 70.4905 -62.0453
LeftForeArm  -2.2201 -0.116467 -0.868391
LeftHand  -0.061807 3.14851 3.20633
RightShoulder  8.15602 10.8702 37.8854
RightArm  21.5972 -31.1213 25.1309
RightForeArm  -6.28746 27.7985 -14.6412
RightHand  -1.29223 4.52424 -14.9905
LeftUpLeg  -19.5716 -5.73179 -4.99932
LeftLeg  6.87932 3.0606 2.78807
LeftFoot  10.7674 -0.220547 1.23811
LeftToes  7.79675e-011 9.80247e-012 -3.28897e-011
82
root  13.7296 38.3118 -54.3816 -2.02038 5.40438 5.61315
RightUpLeg  10.8357 -3.08085 -5.4128
RightLeg  28.0687 6.09057 -6.75964
RightFoot  -15.815 0.350876 14.31
RightToes  5.82077e-011 -3.18055e-015 -2.98177e-016
Spine  4.69169 2.62173 7.89765
Spine1  3.10001 5.54123 -12.6498
HEad  -5.67428 -7.58861 3.02398
LeftShoulder1  -3.88251e-019 9.70628e-020 -3.87848e-018
LeftArm  -27.5571 69.1791 -63.3521
LeftForeArm  -1.73554 -0.0908228 -0.712409
LeftHand  -0.0888099 3.16971 5.02617
RightShoulder  8.27064 10.9121 38.3469
RightArm  20.5552 -34.0324 22.8546
RightForeArm  -8.64488 31.8664 -16.8569
RightHand  -1.40211 4.43812 -16.3619
LeftUpLeg  -19.9159 -5.78625 -7.92388
LeftLeg  12.5558 1.83034 4.60091
LeftFoot  8.80755 -0.370259 2.03457
LeftToes  7.79675e-011 9.80247e-012 -3.28897e-011
83
root  14.235 38.363 -52.9541 -2.04706 5.6087 7.11864
RightUpLeg  6.20697 -3.10874 -7.37943
RightLeg  38.5029 3.90738 -11.5068
RightFoot  -5.84034 -0.85067 14.3676
RightToes  5.82077e-011 -3.18055e-015 -2.98177e-016
Spine  5.74919 2.31179 6.70286
Spine1  2.11427 5.25534 -13.2385
HEad  -4.73364 -7.78151 2.66774
LeftShoulder1  -3.88251e-019 9.70628e-020 -3.87848e-018
LeftArm  -28.6555 67.5882 -64.988
LeftForeArm  -1.78343 -0.476394 -1.00194
LeftHand  -0.115575 3.15622 6.85536
RightShoulder  8.03696 10.8061 37.4477
RightArm  19.3135 -38.6152 21.8969
RightForeArm  -10.5572 34.9813 -18.7159
RightHand  -1.62352 4.87163 -18.1377
LeftUpLeg  -19.0402 -6.68373 -10.5274
LeftLeg  16.2592 2.06577 6.16517
LeftFoot  3.23343 -0.286925 2.06608
LeftToes  7.79675e-011 9.80247e-012 -3.28897e-011
84
root  14.6522 38.4484 -51.6889 -2.20053 4.67643 8.08692
RightUpLeg  -0.162849 -2.6131 -8.22304
RightLeg  48.2713 2.48721 -17.6334
RightFoot  6.59864 -1.49893 8.43351
RightToes  5.82077e-011 -3.18055e-015 -2.98177e-016
Spine  6.56598 2.37544 5.61829
Spine1  2.129 5.32939 -13.9017
HEad  -4.10753 -7.25852 1.94266
LeftShoulder1  -3.88251e-019 9.70628e-020 -3.87848e-018
LeftArm  -28.7846 65.7841 -66.7031
LeftForeArm  -3.41104 -2.74487 -1.49372
LeftHand  -0.122305 3.3042 7.89977
RightShoulder  7.88133 10.7524 36.8026
RightArm  18.9057 -42.052 21.4979
RightForeArm  -11.0694 36.4125 -19.6431
RightHand  -1.72717 5.15543 -18.7686
LeftUpLeg  -17.0586 -5.85948 -12.2696
LeftLeg  17.6136 2.22067 6.60187
LeftFoot  -0.398684 -0.261209 2.34002
LeftToes  7.79675e-011 9.80247e-012 -3.28897e-011
85
root  14.989 38.5644 -50.4764 -2.39897 2.85582 8.46564
RightUpLeg  -6.76051 -1.9805 -7.97072
RightLeg  55.6974 3.41534 -21.74
RightFoot  12.5681 -0.630532 2.34348
RightToes  5.82077e-011 -3.18055e-015 -2.98177e-016
Spine  7.02331 2.71089 3.67733
Spine1  2.75832 5.26475 -13.0667
HEad  -4.0509 -5.68706 0.843907
LeftShoulder1  -3.88251e-019 9.70628e-020 -3.87848e-018
LeftArm  -28.4413 64.1266 -68.5341
LeftForeArm  -5.52339 -6.19298 -2.17621
LeftHand  -0.165223 2.75524 8.3186
RightShoulder  7.92655 10.7809 36.9608
RightArm  19.8578 -43.2351 20.8323
RightForeArm  -9.43555 36.2484 -19.6141
RightHand  -1.5967 5.23794 -17.2507
LeftUpLeg  -14.7379 -3.67767 -12.9825
LeftLeg  17.7193 2.10985 6.28217
LeftFoot  -2.02414 -0.257399 2.59483
LeftToes  7.79675e-011 9.80247e-012 -3.28897e-011
86
root  15.296 38.7863 -49.1833 -2.53554 1.53672 8.1371
RightUpLeg  -12.3477 -2.80497 -6.68738
RightLeg  60.2995 5.31607 -22.6575
RightFoot  10.6999 0.0495544 -0.447788
RightToes  5.82077e-011 -3.18055e-015 -2.98177e-016
Spine  6.50755 2.5213 1.89622
Spine1  3.74523 4.50449 -10.6681
HEad  -4.08512 -3.48722 -0.140509
LeftShoulder1  -3.88251e-019 9.70628e-020 -3.87848e-018
LeftArm  -27.6308 62.1162 -69.8576
LeftForeArm  -6.33162 -9.66468 -2.78131
LeftHand  -0.310233 0.947655 8.88699
RightShoulder  8.09831 10.8606 37.6255
RightArm  21.0542 -42.8557 20.3915
RightForeArm  -5.44331 34.3201 -18.5382
RightHand  -1.51844 5.81869 -15.6066
LeftUpLeg  -12.1066 -3.17622 -12.6884
LeftLeg  17.2217 3.09183 5.83944
LeftFoot  -4.06984 -0.193839 2.30406
LeftToes  7.79675e-011 9.80247e-012 -3.28897e-011
87
root  15.5619 38.9677 -47.882 -2.48818 1.31852 7.74725
RightUpLeg  -17.1555 -5.16867 -5.14128
RightLeg  62.2742 6.90716 -21.2609
RightFoot  6.37409 -0.14339 0.677598
RightToes  5.82077e-011 -3.18055e-015 -2.98177e-016
Spine  6.26555 1.74368 0.0375275
Spine1  3.90412 3.08086 -8.13061
HEad  -3.49221 -1.41472 -0.806204
LeftShoulder1  -3.88251e-019 9.70628e-020 -3.87848e-018
LeftArm  -25.9579 59.68 -70.0735
LeftForeArm  -5.48745 -12.4682 -3.30336
LeftHand  -0.535329 -1.16356 10.2161
RightShoulder  8.17109 10.8885 37.9175
RightArm  21.543 -42.9415 20.3412
RightForeArm  -0.638906 31.0709 -16.7637
RightHand  -1.76986 6.72428 -16.7851
LeftUpLeg  -9.63752 -4.22491 -12.6291
LeftLeg  16.8196 4.38081 5.85677
LeftFoot  -6.52033 -0.130607 1.9847
LeftToes  7.79675e-011 9.80247e-012 -3.28897e-011
